<svg width="29" height="29" viewBox="0 0 29 29" fill="none" xmlns="http://www.w3.org/2000/svg">
<path d="M14.3702 8.5302C15.3311 8.5302 16.1102 7.7512 16.1102 6.7902C16.1102 5.8292 15.3311 5.0502 14.3702 5.0502C13.4092 5.0502 12.6302 5.8292 12.6302 6.7902C12.6302 7.7512 13.4092 8.5302 14.3702 8.5302Z" fill="#414042"/>
<path d="M9.72032 11.2802C10.6812 11.2802 11.4603 10.5012 11.4603 9.5402C11.4603 8.5792 10.6812 7.8002 9.72032 7.8002C8.75932 7.8002 7.98032 8.5792 7.98032 9.5402C7.98032 10.5012 8.75932 11.2802 9.72032 11.2802Z" fill="#414042"/>
<path d="M5.07011 14.0302C6.03111 14.0302 6.81011 13.2512 6.81011 12.2902C6.81011 11.3292 6.03111 10.5502 5.07011 10.5502C4.10921 10.5502 3.33011 11.3292 3.33011 12.2902C3.33011 13.2512 4.10921 14.0302 5.07011 14.0302Z" fill="#414042"/>
<path d="M5.07002 24.77C6.03092 24.77 6.81002 23.991 6.81002 23.03C6.81002 22.069 6.03092 21.29 5.07002 21.29C4.10902 21.29 3.33002 22.069 3.33002 23.03C3.33002 23.991 4.10902 24.77 5.07002 24.77Z" fill="#414042"/>
<path d="M14.3702 13.9501C15.3311 13.9501 16.1102 13.1711 16.1102 12.2101C16.1102 11.2492 15.3311 10.4701 14.3702 10.4701C13.4092 10.4701 12.6302 11.2492 12.6302 12.2101C12.6302 13.1711 13.4092 13.9501 14.3702 13.9501Z" fill="#414042"/>
<path d="M9.72032 16.7001C10.6812 16.7001 11.4603 15.9211 11.4603 14.9601C11.4603 13.9992 10.6812 13.2201 9.72032 13.2201C8.75932 13.2201 7.98032 13.9992 7.98032 14.9601C7.98032 15.9211 8.75932 16.7001 9.72032 16.7001Z" fill="#414042"/>
<path d="M5.07011 19.4401C6.03111 19.4401 6.81011 18.6611 6.81011 17.7001C6.81011 16.7392 6.03111 15.9601 5.07011 15.9601C4.10921 15.9601 3.33011 16.7392 3.33011 17.7001C3.33011 18.6611 4.10921 19.4401 5.07011 19.4401Z" fill="#414042"/>
<path d="M9.72001 22.1901C10.6809 22.1901 11.46 21.4111 11.46 20.4501C11.46 19.4892 10.6809 18.7101 9.72001 18.7101C8.75901 18.7101 7.98001 19.4892 7.98001 20.4501C7.98001 21.4111 8.75901 22.1901 9.72001 22.1901Z" fill="#414042"/>
<path d="M0.419998 9.92C0.651998 9.92 0.84 9.7319 0.84 9.5C0.84 9.268 0.651998 9.08 0.419998 9.08C0.188098 9.08 0 9.268 0 9.5C0 9.7319 0.188098 9.92 0.419998 9.92Z" fill="#414042"/>
<path d="M0.419998 15.3398C0.651898 15.3398 0.84 15.1517 0.84 14.9198C0.84 14.6878 0.651898 14.4998 0.419998 14.4998C0.187998 14.4998 0 14.6878 0 14.9198C0 15.1517 0.187998 15.3398 0.419998 15.3398Z" fill="#414042"/>
<path d="M0.419998 20.7598C0.651898 20.7598 0.84 20.5718 0.84 20.3398C0.84 20.1078 0.651898 19.9198 0.419998 19.9198C0.187998 19.9198 0 20.1078 0 20.3398C0 20.5718 0.187998 20.7598 0.419998 20.7598Z" fill="#414042"/>
<path d="M0.419998 26.1798C0.651898 26.1798 0.84 25.9918 0.84 25.7598C0.84 25.5279 0.651898 25.3398 0.419998 25.3398C0.187998 25.3398 0 25.5279 0 25.7598C0 25.9918 0.187998 26.1798 0.419998 26.1798Z" fill="#414042"/>
<path d="M28.25 9.92C28.482 9.92 28.67 9.7319 28.67 9.5C28.67 9.268 28.482 9.08 28.25 9.08C28.0181 9.08 27.83 9.268 27.83 9.5C27.83 9.7319 28.0181 9.92 28.25 9.92Z" fill="#414042"/>
<path d="M28.25 15.3398C28.4819 15.3398 28.67 15.1517 28.67 14.9198C28.67 14.6878 28.4819 14.4998 28.25 14.4998C28.018 14.4998 27.83 14.6878 27.83 14.9198C27.83 15.1517 28.018 15.3398 28.25 15.3398Z" fill="#414042"/>
<path d="M28.25 20.7598C28.4819 20.7598 28.67 20.5718 28.67 20.3398C28.67 20.1078 28.4819 19.9198 28.25 19.9198C28.018 19.9198 27.83 20.1078 27.83 20.3398C27.83 20.5718 28.018 20.7598 28.25 20.7598Z" fill="#414042"/>
<path d="M28.25 26.1798C28.4819 26.1798 28.67 25.9918 28.67 25.7598C28.67 25.5279 28.4819 25.3398 28.25 25.3398C28.018 25.3398 27.83 25.5279 27.83 25.7598C27.83 25.9918 28.018 26.1798 28.25 26.1798Z" fill="#414042"/>
<path d="M14.37 18.5002C14.8505 18.5002 15.24 18.1107 15.24 17.6302C15.24 17.1497 14.8505 16.7602 14.37 16.7602C13.8896 16.7602 13.5 17.1497 13.5 17.6302C13.5 18.1107 13.8896 18.5002 14.37 18.5002Z" fill="#414042"/>
<path d="M14.37 23.46C14.6019 23.46 14.79 23.272 14.79 23.04C14.79 22.8081 14.6019 22.62 14.37 22.62C14.138 22.62 13.95 22.8081 13.95 23.04C13.95 23.272 14.138 23.46 14.37 23.46Z" fill="#414042"/>
<path d="M9.72011 26.21C9.95211 26.21 10.1401 26.022 10.1401 25.79C10.1401 25.5581 9.95211 25.37 9.72011 25.37C9.48821 25.37 9.30011 25.5581 9.30011 25.79C9.30011 26.022 9.48821 26.21 9.72011 26.21Z" fill="#414042"/>
<path d="M5.07021 28.96C5.30221 28.96 5.49021 28.772 5.49021 28.54C5.49021 28.3081 5.30221 28.12 5.07021 28.12C4.83821 28.12 4.65021 28.3081 4.65021 28.54C4.65021 28.772 4.83821 28.96 5.07021 28.96Z" fill="#414042"/>
<path d="M14.3001 8.5302C15.2611 8.5302 16.0401 7.7512 16.0401 6.7902C16.0401 5.8292 15.2611 5.0502 14.3001 5.0502C13.3391 5.0502 12.5601 5.8292 12.5601 6.7902C12.5601 7.7512 13.3391 8.5302 14.3001 8.5302Z" fill="#414042"/>
<path d="M18.9503 11.2802C19.9113 11.2802 20.6903 10.5012 20.6903 9.5402C20.6903 8.5792 19.9113 7.8002 18.9503 7.8002C17.9893 7.8002 17.2103 8.5792 17.2103 9.5402C17.2103 10.5012 17.9893 11.2802 18.9503 11.2802Z" fill="#414042"/>
<path d="M23.6002 14.0302C24.5612 14.0302 25.3402 13.2512 25.3402 12.2902C25.3402 11.3292 24.5612 10.5502 23.6002 10.5502C22.6392 10.5502 21.8602 11.3292 21.8602 12.2902C21.8602 13.2512 22.6392 14.0302 23.6002 14.0302Z" fill="#414042"/>
<path d="M18.9499 22.56C19.9109 22.56 20.6899 21.781 20.6899 20.82C20.6899 19.859 19.9109 19.08 18.9499 19.08C17.989 19.08 17.21 19.859 17.21 20.82C17.21 21.781 17.989 22.56 18.9499 22.56Z" fill="#414042"/>
<path d="M14.3001 13.9501C15.2611 13.9501 16.0401 13.1711 16.0401 12.2101C16.0401 11.2492 15.2611 10.4701 14.3001 10.4701C13.3391 10.4701 12.5601 11.2492 12.5601 12.2101C12.5601 13.1711 13.3391 13.9501 14.3001 13.9501Z" fill="#414042"/>
<path d="M18.9503 16.7001C19.9113 16.7001 20.6903 15.9211 20.6903 14.9601C20.6903 13.9992 19.9113 13.2201 18.9503 13.2201C17.9893 13.2201 17.2103 13.9992 17.2103 14.9601C17.2103 15.9211 17.9893 16.7001 18.9503 16.7001Z" fill="#414042"/>
<path d="M23.6002 19.4401C24.5612 19.4401 25.3402 18.6611 25.3402 17.7001C25.3402 16.7392 24.5612 15.9601 23.6002 15.9601C22.6392 15.9601 21.8602 16.7392 21.8602 17.7001C21.8602 18.6611 22.6392 19.4401 23.6002 19.4401Z" fill="#414042"/>
<path d="M23.6 24.77C24.561 24.77 25.34 23.991 25.34 23.03C25.34 22.0691 24.561 21.29 23.6 21.29C22.6391 21.29 21.86 22.0691 21.86 23.03C21.86 23.991 22.6391 24.77 23.6 24.77Z" fill="#414042"/>
<path d="M14.3 18.5002C14.7805 18.5002 15.17 18.1107 15.17 17.6302C15.17 17.1497 14.7805 16.7602 14.3 16.7602C13.8195 16.7602 13.43 17.1497 13.43 17.6302C13.43 18.1107 13.8195 18.5002 14.3 18.5002Z" fill="#414042"/>
<path d="M14.3002 23.46C14.5321 23.46 14.7202 23.272 14.7202 23.04C14.7202 22.8081 14.5321 22.62 14.3002 22.62C14.0682 22.62 13.8802 22.8081 13.8802 23.04C13.8802 23.272 14.0682 23.46 14.3002 23.46Z" fill="#414042"/>
<path d="M18.9501 26.21C19.1821 26.21 19.3701 26.022 19.3701 25.79C19.3701 25.5581 19.1821 25.37 18.9501 25.37C18.7181 25.37 18.5301 25.5581 18.5301 25.79C18.5301 26.022 18.7181 26.21 18.9501 26.21Z" fill="#414042"/>
<path d="M23.6 28.96C23.832 28.96 24.02 28.772 24.02 28.54C24.02 28.3081 23.832 28.12 23.6 28.12C23.368 28.12 23.18 28.3081 23.18 28.54C23.18 28.772 23.368 28.96 23.6 28.96Z" fill="#414042"/>
<path d="M9.72009 4.42C9.95199 4.42 10.14 4.2319 10.14 4C10.14 3.768 9.95199 3.58 9.72009 3.58C9.48809 3.58 9.29999 3.768 9.29999 4C9.29999 4.2319 9.48809 4.42 9.72009 4.42Z" fill="#414042"/>
<path d="M5.07 7.17C5.302 7.17 5.48999 6.9819 5.48999 6.75C5.48999 6.518 5.302 6.33 5.07 6.33C4.8381 6.33 4.64999 6.518 4.64999 6.75C4.64999 6.9819 4.8381 7.17 5.07 7.17Z" fill="#414042"/>
<path d="M14.3 1.67C14.532 1.67 14.72 1.4819 14.72 1.25C14.72 1.018 14.532 0.830002 14.3 0.830002C14.0681 0.830002 13.88 1.018 13.88 1.25C13.88 1.4819 14.0681 1.67 14.3 1.67Z" fill="#414042"/>
<path d="M18.95 4.42C19.182 4.42 19.37 4.2319 19.37 4C19.37 3.768 19.182 3.58 18.95 3.58C18.7181 3.58 18.53 3.768 18.53 4C18.53 4.2319 18.7181 4.42 18.95 4.42Z" fill="#414042"/>
<path d="M23.6 7.17C23.8319 7.17 24.02 6.9819 24.02 6.75C24.02 6.518 23.8319 6.33 23.6 6.33C23.368 6.33 23.18 6.518 23.18 6.75C23.18 6.9819 23.368 7.17 23.6 7.17Z" fill="#414042"/>
</svg>
